<?xml version="1.0" encoding="utf-8"?>
<!-- Generator: Adobe Illustrator 17.0.2, SVG Export Plug-In . SVG Version: 6.00 Build 0)  -->
<!DOCTYPE svg PUBLIC "-//W3C//DTD SVG 1.1//EN" "http://www.w3.org/Graphics/SVG/1.1/DTD/svg11.dtd">
<svg version="1.1" id="Capa_1" xmlns="http://www.w3.org/2000/svg" xmlns:xlink="http://www.w3.org/1999/xlink" x="0px" y="0px"
	 width="256px" height="256px" viewBox="0 0 256 256" enable-background="new 0 0 256 256" xml:space="preserve">
<g>
	<path d="M81.067,110.933c0,2.359,1.911,4.267,4.267,4.267H192c2.355,0,4.267-1.907,4.267-4.267c0-2.359-1.911-4.267-4.267-4.267
		H85.333C82.978,106.667,81.067,108.574,81.067,110.933z"/>
	<path d="M85.333,81.067H128c2.355,0,4.267-1.907,4.267-4.267c0-2.359-1.911-4.267-4.267-4.267H85.333
		c-2.355,0-4.267,1.907-4.267,4.267C81.067,79.159,82.978,81.067,85.333,81.067z"/>
	<path d="M192,140.8H85.333c-2.355,0-4.267,1.907-4.267,4.267c0,2.359,1.911,4.267,4.267,4.267H192c2.355,0,4.267-1.907,4.267-4.267
		C196.267,142.707,194.355,140.8,192,140.8z"/>
	<path d="M192,174.933H85.333c-2.355,0-4.267,1.907-4.267,4.267s1.911,4.267,4.267,4.267H192c2.355,0,4.267-1.907,4.267-4.267
		S194.355,174.933,192,174.933z"/>
	<path d="M192,209.067H85.333c-2.355,0-4.267,1.907-4.267,4.267c0,2.359,1.911,4.267,4.267,4.267H192
		c2.355,0,4.267-1.907,4.267-4.267C196.267,210.974,194.355,209.067,192,209.067z"/>
	<path d="M209.067,62.234V0H25.6v234.667h21.333V256H230.4V83.567L209.067,62.234z M215.834,81.067h-45.167V35.9l38.4,38.4
		L215.834,81.067z M46.933,226.133h-12.8V8.533h166.4V53.7l-32.367-32.367H46.933V226.133z M221.867,247.467h-166.4v-12.8v-204.8
		h106.667V89.6h59.733V247.467z"/>
</g>
</svg>
